<?xml version="1.0" encoding="utf-8"?>
<!-- Generator: Adobe Adobe Illustrator 24.2.0, SVG Export Plug-In . SVG Version: 6.00 Build 0)  -->
<svg version="1.1" id="Layer_2" xmlns="http://www.w3.org/2000/svg" xmlns:xlink="http://www.w3.org/1999/xlink" x="0px" y="0px"
	 width="640px" height="480px" viewBox="0 0 640 480" style="enable-background:new 0 0 640 480;" xml:space="preserve">
<style type="text/css">
	.st0{fill:none;stroke:#FFFFFF;stroke-width:15;stroke-miterlimit:10;}
</style>
<path class="st0" d="M170.99,131.75c0.02-11.52,4.7-22.59,11.41-31.22s15.32-15.04,24.23-20.49c11.92-7.28,24.96-13.09,38.49-13.05
	c6.43,0.02,13.06,1.49,18.33,5.69c5.27,4.2,8.91,11.53,8.03,18.79c-0.83,6.88-5.42,12.48-10.56,16.22
	c-5.14,3.74-10.96,6.1-16.26,9.54c-9.56,6.2-17.09,15.68-25.68,23.5c-8.59,7.82-19.25,14.24-30.14,12.49
	C177.95,151.48,170.97,139.09,170.99,131.75z"/>
<path class="st0" d="M217.68,148.33c-1.14,3.68-1.88,10.38,0.81,14.54c2.69,4.16,7.12,6.56,11.62,7.24
	c9.98,1.52,19.54-4.56,27.97-10.82c11.33-8.41,22.28-17.61,31.94-28.39c5.06-5.65,10.12-13.58,7.6-21.12
	c-1.65-4.96-6.19-7.94-10.7-9.24c-8.74-2.53-18.5,0.06-25.37,6.73"/>
<path class="st0" d="M300.45,123.42c3.69-2.7,7.49-5.45,11.78-6.44c4.3-0.99,9.26,0.17,11.94,4.12c2.59,3.83,2.41,9.38,0.67,13.79
	c-1.74,4.41-4.8,7.94-7.79,11.37c-6.39,7.32-12.86,14.71-20.57,20.13c-6.62,4.65-14.07,7.75-21.76,9.05
	c-4.43,0.75-9.6,0.61-12.55-3.24C258.14,166.94,258.55,154.08,300.45,123.42z"/>
<path class="st0" d="M381.97,162.69c-15.14-20.24-39.81-30.77-93.13,14.3c28.9,4.32,60.43,12.35,88.67,0.54
	c2.55-1.07,4.79-3.1,6.04-5.84C385.41,167.64,383.71,165.02,381.97,162.69z"/>
<path class="st0" d="M238.69,173.67c-3.21,7.88-6.49,16.41-5.14,24.96c2.14,13.54,15.22,21.47,27.27,22.31
	c12.05,0.84,23.93-3.3,35.98-4.12c20.82-1.42,41.02,7.06,61.25,12.86s42.79,8.67,60.99-2.93c11.83-7.54,20.94-25.02,14.04-38.32
	c-3.41-6.57-9.8-10.3-16.03-13.11c-10.03-4.53-20.57-7.6-31.29-9.12"/>
<path class="st0" d="M173.37,140.51c-21.76-10.27-47.24-15.87-68.45-4.21c-18.78,10.32-37.18,27.59-42.1,50.67s-3.77,47.2-2.6,70.91
	c1.37,27.66,2.74,55.32,4.11,82.98"/>
<path class="st0" d="M63.69,327.89c12.9-24.95,28.1-49.54,49.89-64.44c21.79-14.9,51.61-17.82,71.75-0.16
	c10.22,8.96,17.03,22.16,27.08,31.36c10.78,9.87,25.1,14.56,38.83,12.71c19.3-2.6,35.76-25.18,54.58-30.69
	c34.57-10.12,74.13,16.22,83.36,55.5"/>
<path class="st0" d="M216.32,153.57c2.36-6.03,4.72-12.05,7.08-18.08"/>
<path class="st0" d="M235.58,181.56c2.52-5.22,5.72-10.02,9.46-14.18"/>
<path class="st0" d="M433.09,188.42c27.63,10.9,62.94,12.44,88.97,27.62c34.85,20.32,55.69,67.91,48.98,111.85"/>
<path class="st0" d="M549.06,240.58c-16.24,1.37-30.54,14.47-38.15,30.87c-7.61,16.4-9.28,35.65-8.08,54.15
	c0.1,1.59,0.99,3.76,2.28,3.13"/>
<path class="st0" d="M570.58,329.36c0,0-507.08,7.62-505.52,8.81c-7.88,12.64-9.06,29.25-7.42,44.64c0.66,6.23,1.78,12.5,4.35,18.05
	c2.57,5.55,6.78,10.34,12.06,12.14c0,0,496.53-4.76,496.13-3.04c8.57,0,13.06-24.62,12.81-38.84s-4.51-28.03-10.32-40.63
	C572.1,329.26,571.25,327.85,570.58,329.36z"/>
</svg>
